<?xml version="1.0" encoding="UTF-8"?>
<svg width="505px" height="637px" viewBox="0 0 505 637" version="1.1" xmlns="http://www.w3.org/2000/svg" xmlns:xlink="http://www.w3.org/1999/xlink">
    <!-- Generator: Sketch 52.5 (67469) - http://www.bohemiancoding.com/sketch -->
    <title>Logo@2x</title>
    <desc>Created with Sketch.</desc>
    <g id="Documentation" stroke="none" stroke-width="1" fill="none" fill-rule="evenodd">
        <g id="Avatar-Trans-Blue" transform="translate(-6.000000, 0.000000)">
            <g id="Logo" transform="translate(6.000000, 0.000000)">
                <path d="M0.301538462,542.62963 L0.301538462,151.111918 C19.5983796,183.08509 54.7102008,204.469136 94.8246154,204.469136 L283.870769,204.469136 L283.870769,204.545103 C285.19696,204.494643 286.509991,204.469136 287.809231,204.469136 C407.442604,204.469136 504.424615,301.294468 504.424615,420.734568 C504.424615,422.068506 504.411521,423.379087 504.385458,424.666667 L504.424615,424.666667 L504.424615,542.62963 C504.424615,594.748946 462.105192,637 409.901538,637 C357.697885,637 315.378462,594.748946 315.378462,542.62963 L315.378462,432.530864 C315.378462,397.784653 287.165513,369.617284 252.363077,369.617284 C217.560641,369.617284 189.347692,397.784653 189.347692,432.530864 L189.347692,542.62963 C189.347692,594.748946 147.028269,637 94.8246154,637 C42.6209615,637 0.301538462,594.748946 0.301538462,542.62963 Z" id="Path" fill="#1E3769"></path>
                <path d="M189.347692,94.3703704 L189.347692,188.740741 L94.8246154,188.740741 C42.6209615,188.740741 0.301538462,146.489687 0.301538462,94.3703704 C0.301538462,42.251054 42.6209615,0 94.8246154,0 C147.028269,0 189.347692,42.251054 189.347692,94.3703704 Z" id="Path" fill="#04C5D3"></path>
            </g>
        </g>
    </g>
</svg>