<?xml version="1.0" encoding="UTF-8"?>
<svg width="510px" height="641px" viewBox="0 0 510 641" version="1.1" xmlns="http://www.w3.org/2000/svg" xmlns:xlink="http://www.w3.org/1999/xlink">
    <!-- Generator: Sketch 52.5 (67469) - http://www.bohemiancoding.com/sketch -->
    <title>Logo White@2x</title>
    <desc>Created with Sketch.</desc>
    <g id="Documentation" stroke="none" stroke-width="1" fill="none" fill-rule="evenodd">
        <g id="Logo-Trans-White" transform="translate(-1.000000, 0.000000)">
            <g id="Group-2" transform="translate(1.000000, 0.000000)">
                <g id="Logo-White">
                    <path d="M0.0881522601,546.037037 L0.0881522601,152.060815 C19.5839299,184.234761 55.0577287,205.753086 95.5856939,205.753086 L286.580777,205.753086 L286.580777,205.829531 C287.92064,205.778754 289.247207,205.753086 290.559841,205.753086 C411.426549,205.753086 509.408374,303.186427 509.408374,423.376543 C509.408374,424.718857 509.395145,426.037668 509.368813,427.333333 L509.408374,427.333333 L509.408374,546.037037 C509.408374,598.483633 466.652669,641 413.910833,641 C361.168997,641 318.413291,598.483633 318.413291,546.037037 L318.413291,435.246914 C318.413291,400.282516 289.909487,371.938272 254.748263,371.938272 C219.587039,371.938272 191.083236,400.282516 191.083236,435.246914 L191.083236,546.037037 C191.083236,598.483633 148.32753,641 95.5856939,641 C42.843858,641 0.0881522601,598.483633 0.0881522601,546.037037 Z" id="Path" fill="#FFFFFF"></path>
                    <path d="M191.083236,94.962963 L191.083236,189.925926 L95.5856939,189.925926 C42.843858,189.925926 0.0881522601,147.409559 0.0881522601,94.962963 C0.0881522601,42.5163667 42.843858,0 95.5856939,0 C148.32753,0 191.083236,42.5163667 191.083236,94.962963 Z" id="Path" fill="#04C5D3"></path>
                </g>
            </g>
        </g>
    </g>
</svg>